# xmcd
#
# Track frame offsets:
#	182
#	15840
#	34315
#	51912
#	74337
#	89170
#	102775
#	121740
#	137632
#	161810
#	180720
#	194032
#	220250
#	237060
#	252672
#
# Disc length: 3689 seconds
#
# Revision: 4
# Processed by: cddbd v1.5.2PL0 Copyright (c) Steve Scherf et al.
# Submitted via: EasyCDDAExtractor 11.1.0.1
#
DISCID=da0e670f
DTITLE=Various Artist - I Asked For Whiskey
DYEAR=1995
DGENRE=Blues
TTITLE0=Sunnyland Slim And Lacy Gibson - I Had It So Hard
TTITLE1=Byther Smith - Come On In This House
TTITLE2=Muddy Waters - Walking Blues
TTITLE3=Buster Benton with Carey Bell - Love Like I Wanna
TTITLE4=Big Walter 'Shakey' Horton - Easy
TTITLE5=Screamin' Jay Hawkins - She Put The Wammee On Me
TTITLE6=Tommy Tucker - Lean Greens
TTITLE7=John Lee Hooker - Black Man Blues
TTITLE8=Buddy Guy And Junior Wells - Country Girl
TTITLE9=Isaac Scott - Feast Goin' On
TTITLE10=Mississippi Fred McDowell - I Asked For Whiskey She Brought Me Gasoli
TTITLE10=ne
TTITLE11=Earl Hooker - Two Bugs In A Rug
TTITLE12=Billy Boy Arnold And Sammy Lawhorn - Back Door Friend
TTITLE13=Bo Diddley - Road Runner
TTITLE14=Jimmy Johnson - When My First Wife Quit Me
EXTD=
EXTT0=
EXTT1=
EXTT2=
EXTT3=
EXTT4=
EXTT5=
EXTT6=
EXTT7=
EXTT8=
EXTT9=
EXTT10=
EXTT11=
EXTT12=
EXTT13=
EXTT14=
PLAYORDER=
